<!--?xml version="1.0" encoding="utf-8"?-->
<!-- Generator: Adobe Illustrator 18.1.1, SVG Export Plug-In . SVG Version: 6.00 Build 0)  -->

<svg version="1.1" id="_x32_" xmlns="http://www.w3.org/2000/svg" xmlns:xlink="http://www.w3.org/1999/xlink" x="0px" y="0px" viewBox="0 0 512 512" style="width: 128px; height: 128px; opacity: 1;" xml:space="preserve">
<style type="text/css">
	.st0{fill:#4B4B4B;}
</style>
<g>
	<path class="st0" d="M256,265.308c73.252,0,132.643-59.391,132.643-132.654C388.643,59.412,329.252,0,256,0
		c-73.262,0-132.644,59.412-132.644,132.654C123.357,205.917,182.738,265.308,256,265.308z" style="fill: rgb(75, 75, 75);"></path>
	<polygon class="st0" points="231.059,320.688 256,354.395 280.941,320.688 277.582,278.497 234.418,278.497 	" style="fill: rgb(75, 75, 75);"></polygon>
	<path class="st0" d="M425.874,393.104c-5.922-35.474-36-84.509-57.551-107.465c-5.83-6.212-15.949-3.628-19.504-1.427
		c-9.747,6.006-20.135,11.091-30.998,15.163L256,382.933l-61.82-83.558c-10.863-4.072-21.251-9.158-30.998-15.163
		c-3.556-2.201-13.675-4.785-19.504,1.427c-21.55,22.956-51.629,71.991-57.552,107.465C71.573,480.444,164.877,512,256,512
		C347.123,512,440.427,480.444,425.874,393.104z M256,453.498c-8.765,0-15.876-7.112-15.876-15.876
		c0-8.766,7.111-15.876,15.876-15.876c8.765,0,15.876,7.111,15.876,15.876C271.877,446.386,264.765,453.498,256,453.498z" style="fill: rgb(75, 75, 75);"></path>
</g>
</svg>
